<?xml version="1.0" encoding="utf-8"?>
<!-- Generator: Adobe Illustrator 24.0.1, SVG Export Plug-In . SVG Version: 6.00 Build 0)  -->
<svg version="1.1" id="Layer_1" xmlns="http://www.w3.org/2000/svg" xmlns:xlink="http://www.w3.org/1999/xlink" x="0px" y="0px"
	 viewBox="0 0 150 150" style="enable-background:new 0 0 150 150;" xml:space="preserve">
<style type="text/css">
	.st0{fill:#323743;}
	.st1{fill:#39B54A;}
	.st2{fill:#FEFEFE;}
</style>
<rect x="9" y="69" class="st0" width="128" height="2"/>
<circle class="st1" cx="12.5" cy="70.5" r="9"/>
<circle class="st1" cx="74.8" cy="70" r="9"/>
<circle class="st0" cx="137" cy="70" r="9"/>
<g>
	<path class="st2" d="M17.5,67.9c0,0.5-0.3,0.7-0.6,1c-1.5,1.5-3,3-4.5,4.5c-0.7,0.7-1.3,0.7-2,0c-0.8-0.8-1.6-1.6-2.4-2.4
		c-0.5-0.5-0.7-1-0.2-1.6c0.5-0.6,1.1-0.3,1.6,0.1c0.8,0.6,1.3,2,2.2,1.8c0.8-0.2,1.5-1.3,2.2-2c0.7-0.7,1.3-1.3,2-2
		c0.4-0.4,0.8-0.4,1.2-0.2C17.3,67.2,17.5,67.5,17.5,67.9z"/>
</g>
<circle class="st1" cx="74.9" cy="70.2" r="9"/>
<g>
	<path class="st2" d="M80,67.6c0,0.5-0.3,0.7-0.6,1c-1.5,1.5-3,3-4.5,4.5c-0.7,0.7-1.3,0.7-2,0c-0.8-0.8-1.6-1.6-2.4-2.4
		c-0.5-0.5-0.7-1-0.2-1.6c0.5-0.6,1.1-0.3,1.6,0.1c0.8,0.6,1.3,2,2.2,1.8c0.8-0.2,1.5-1.3,2.2-2c0.7-0.7,1.3-1.3,2-2
		c0.4-0.4,0.8-0.4,1.2-0.2C79.9,67,80,67.3,80,67.6z"/>
</g>
</svg>
